# xmcd CD database file
#
# Track frame offsets:
#	150
#	22502
#	42270
#	67262
#	81180
#	110195
#	129200
#	148657
#	162525
#	169817
#	188990
#	206147
#	218340
#	238585
#
# Disc length: 3407 seconds
#
# Revision: 0
# Processed by: cddbd v1.5.1PL0 Copyright (c) Steve Scherf et al.
# Submitted via: CDex 1.51
#
DISCID=c70d4d0e
DTITLE=Chiara Civello - Last Quater Moon
DYEAR=2005
DGENRE=Jazz
TTITLE0=Here Is Everything
TTITLE1=The Wrong Goodbye
TTITLE2=Ora
TTITLE3=Caramel
TTITLE4=Parole Incerte
TTITLE5=Last Quarter Moon
TTITLE6=Nature Song
TTITLE7=In Questi Giorni
TTITLE8=Sambaroma
TTITLE9=Trouble
TTITLE10=Outono
TTITLE11=I Won't Run Away
TTITLE12=Beijo Partido
TTITLE13=Sambaroma(Extended Version)
EXTD=YEAR: 2005
EXTT0=
EXTT1=
EXTT2=
EXTT3=
EXTT4=
EXTT5=
EXTT6=
EXTT7=
EXTT8=
EXTT9=
EXTT10=
EXTT11=
EXTT12=
EXTT13=
PLAYORDER=
